<svg width="96" height="23" viewBox="0 0 96 23" fill="none" xmlns="http://www.w3.org/2000/svg">
	<path d="M26.0625 18H23.2305V3H26.0625V18ZM34.7246 16.9258C34.028 17.7721 33.0645 18.1953 31.834 18.1953C30.7012 18.1953 29.8353 17.8698 29.2363 17.2188C28.6439 16.5677 28.3411 15.6139 28.3281 14.3574V7.43359H31.1504V14.2598C31.1504 15.36 31.6517 15.9102 32.6543 15.9102C33.6113 15.9102 34.2689 15.5781 34.627 14.9141V7.43359H37.459V18H34.8027L34.7246 16.9258ZM43.4258 13.7617L42.4102 14.7773V18H39.5879V3H42.4102V11.3105L42.957 10.6074L45.6621 7.43359H49.0508L45.2324 11.8379L49.3828 18H46.1406L43.4258 13.7617Z" fill="#FFA553" />
	<path d="M55.9941 15.0801C55.9941 14.735 55.8216 14.4648 55.4766 14.2695C55.138 14.0677 54.5911 13.8887 53.8359 13.7324C51.3229 13.2051 50.0664 12.1374 50.0664 10.5293C50.0664 9.5918 50.4538 8.81055 51.2285 8.18555C52.0098 7.55404 53.0286 7.23828 54.2852 7.23828C55.6263 7.23828 56.6973 7.55404 57.498 8.18555C58.3053 8.81706 58.709 9.63737 58.709 10.6465H55.8867C55.8867 10.2428 55.7565 9.91081 55.4961 9.65039C55.2357 9.38346 54.8288 9.25 54.2754 9.25C53.8001 9.25 53.4323 9.35742 53.1719 9.57227C52.9115 9.78711 52.7812 10.0605 52.7812 10.3926C52.7812 10.7051 52.9277 10.959 53.2207 11.1543C53.5202 11.3431 54.0215 11.5091 54.7246 11.6523C55.4277 11.7891 56.0202 11.9453 56.502 12.1211C57.9928 12.668 58.7383 13.6152 58.7383 14.9629C58.7383 15.9264 58.3249 16.7077 57.498 17.3066C56.6712 17.8991 55.6035 18.1953 54.2949 18.1953C53.4095 18.1953 52.6217 18.0391 51.9316 17.7266C51.248 17.4076 50.7109 16.9746 50.3203 16.4277C49.9297 15.8743 49.7344 15.2786 49.7344 14.6406H52.4102C52.4362 15.1419 52.6217 15.526 52.9668 15.793C53.3118 16.0599 53.7741 16.1934 54.3535 16.1934C54.8939 16.1934 55.3008 16.0924 55.5742 15.8906C55.8542 15.6823 55.9941 15.4121 55.9941 15.0801ZM63.9434 4.83594V7.43359H65.75V9.50391H63.9434V14.7773C63.9434 15.168 64.0182 15.4479 64.168 15.6172C64.3177 15.7865 64.6042 15.8711 65.0273 15.8711C65.3398 15.8711 65.6165 15.8483 65.8574 15.8027V17.9414C65.304 18.1107 64.7344 18.1953 64.1484 18.1953C62.1693 18.1953 61.1602 17.196 61.1211 15.1973V9.50391H59.5781V7.43359H61.1211V4.83594H63.9434ZM66.5898 12.6191C66.5898 11.571 66.7917 10.6367 67.1953 9.81641C67.599 8.99609 68.1784 8.36133 68.9336 7.91211C69.6953 7.46289 70.5775 7.23828 71.5801 7.23828C73.0059 7.23828 74.168 7.67448 75.0664 8.54688C75.9714 9.41927 76.4759 10.6042 76.5801 12.1016L76.5996 12.8242C76.5996 14.4453 76.1471 15.7474 75.2422 16.7305C74.3372 17.707 73.123 18.1953 71.5996 18.1953C70.0762 18.1953 68.8587 17.707 67.9473 16.7305C67.0423 15.7539 66.5898 14.4258 66.5898 12.7461V12.6191ZM69.4121 12.8242C69.4121 13.8268 69.6009 14.5951 69.9785 15.1289C70.3561 15.6562 70.8965 15.9199 71.5996 15.9199C72.2832 15.9199 72.8171 15.6595 73.2012 15.1387C73.5853 14.6113 73.7773 13.7715 73.7773 12.6191C73.7773 11.6361 73.5853 10.8743 73.2012 10.334C72.8171 9.79362 72.2767 9.52344 71.5801 9.52344C70.89 9.52344 70.3561 9.79362 69.9785 10.334C69.6009 10.8678 69.4121 11.6979 69.4121 12.8242ZM84.2754 10.0801C83.8913 10.028 83.5527 10.002 83.2598 10.002C82.1921 10.002 81.4922 10.3633 81.1602 11.0859V18H78.3379V7.43359H81.0039L81.082 8.69336C81.6484 7.72331 82.4329 7.23828 83.4355 7.23828C83.748 7.23828 84.041 7.2806 84.3145 7.36523L84.2754 10.0801ZM90.3105 18.1953C88.7611 18.1953 87.498 17.7201 86.5215 16.7695C85.5514 15.819 85.0664 14.5527 85.0664 12.9707V12.6973C85.0664 11.6361 85.2715 10.6888 85.6816 9.85547C86.0918 9.01562 86.6712 8.37109 87.4199 7.92188C88.1751 7.46615 89.0345 7.23828 89.998 7.23828C91.4434 7.23828 92.5794 7.69401 93.4062 8.60547C94.2396 9.51693 94.6562 10.8092 94.6562 12.4824V13.6348H87.9277C88.0189 14.3249 88.2923 14.8783 88.748 15.2949C89.2103 15.7116 89.793 15.9199 90.4961 15.9199C91.5833 15.9199 92.4329 15.526 93.0449 14.7383L94.4316 16.291C94.0085 16.89 93.4355 17.3587 92.7129 17.6973C91.9902 18.0293 91.1895 18.1953 90.3105 18.1953ZM89.9883 9.52344C89.4284 9.52344 88.9727 9.71224 88.6211 10.0898C88.276 10.4674 88.0547 11.0078 87.957 11.7109H91.8828V11.4863C91.8698 10.8613 91.7005 10.3796 91.375 10.041C91.0495 9.69596 90.5872 9.52344 89.9883 9.52344Z" fill="#FFA553" fill-opacity="0.65" />
	<path d="M17 3H1V5H17V3ZM18 13V11L17 6H1L0 11V13H1V19H11V13H15V19H17V13H18ZM9 17H3V13H9V17Z" fill="#FFA553" />
</svg>
